<?xml version="1.0" encoding="utf-8"?>
<!-- Generator: Adobe Illustrator 22.1.0, SVG Export Plug-In . SVG Version: 6.00 Build 0)  -->
<svg version="1.1" id="Capa_1" xmlns="http://www.w3.org/2000/svg" xmlns:xlink="http://www.w3.org/1999/xlink" x="0px" y="0px"
	 viewBox="0 0 160 58.8" style="enable-background:new 0 0 160 58.8;" xml:space="preserve">
<style type="text/css">
	.st0{fill:#27355B;}
	.st1{filter:url(#Adobe_OpacityMaskFilter);}
	.st2{fill:#FFFFFF;}
	.st3{mask:url(#mask-2_1_);fill:#009AAF;}
	.st4{fill:none;stroke:#050201;stroke-width:2.129;}
	.st5{fill:#009AAF;}
</style>
<title>Page 1</title>
<desc>Created with Sketch.</desc>
<g id="Page-1_1_">
	<g id="portada" transform="translate(-134.000000, -78.000000)">
		<g id="Page-1" transform="translate(134.000000, 78.000000)">
			<polygon id="Fill-1" class="st0" points="34.8,32.9 52,32.9 52,29.2 38.6,29.2 38.6,19.2 52,19.2 52,15.5 38.6,15.5 38.6,7.8 
				52.1,7.8 52.1,4 34.8,4 			"/>
			<polygon id="Fill-2" class="st0" points="73.5,24.5 56.3,4 55,4 55,32.9 58.8,32.9 58.8,12.7 75.7,32.7 75.8,32.9 77.1,32.9 
				77.1,4 73.5,4 			"/>
			<path id="Fill-3" class="st0" d="M98.6,20h-8l4-8.4L98.6,20z M93.9,4L80,32.9h4.3l4.4-9.2h11.5l4.5,9.2h4.2L95.2,4H93.9z"/>
			<path id="Fill-4" class="st0" d="M133.5,25c-2.5,2.9-5.8,4.3-9.5,4.3c-3.4,0-6.3-1.1-8.6-3.2c-2.2-2.1-3.4-4.8-3.4-8
				c0-2.1,0.5-4,1.5-5.7c1-1.7,2.4-3,4.3-4.1c1.8-1,3.9-1.5,6-1.5c2,0,3.8,0.4,5.5,1.2c1.6,0.8,3.1,1.9,4.2,3.4l0.3,0.4l3-2.3
				L136.5,9c-1.4-1.9-3.2-3.4-5.4-4.4c-2.2-1-4.7-1.6-7.4-1.6c-4.5,0-8.3,1.4-11.3,4.3c-3,2.8-4.5,6.4-4.5,10.5
				c0,3.9,1.3,7.3,3.7,10.1c2.9,3.3,7,5,12.1,5c2.7,0,5.1-0.5,7.3-1.5c2.2-1,4-2.4,5.5-4.2l0.3-0.4l-3-2.2L133.5,25z"/>
			<polygon id="Fill-6" class="st0" points="156.1,7.8 156.1,4 138.8,4 138.8,32.9 156,32.9 156,29.2 142.7,29.2 142.7,19.2 
				156,19.2 156,15.5 142.7,15.5 142.7,7.8 			"/>
			<path id="Fill-11" class="st0" d="M109,40.7h3.3c-0.1,0.8-0.3,1.6-0.4,2.3c-0.4,2.3-0.9,4.6-1.3,6.9c-0.1,0.8-0.1,1.6,0,2.3
				c0.1,1.3,1.3,2.2,2.8,2.3c2.5,0.1,4.3-1,5.2-3.6c0.5-1.5,0.8-3.2,1.2-4.8c0.4-1.8,0.7-3.5,1-5.3c0.1-0.3,0.1-0.4,0.4-0.3
				c0.4,0,0.9,0,1.4,0c-0.1,0.7-0.3,1.4-0.4,2c-0.5,2.4-1,4.9-1.5,7.3c-0.3,1.6-1,3-2.3,4.1c-1.8,1.5-3.9,2-6.2,1.9
				c-0.8-0.1-1.7-0.2-2.5-0.5c-1.7-0.6-2.7-1.8-2.6-3.6c0-1.3,0.3-2.7,0.5-4c0.4-2.3,0.9-4.6,1.3-6.8
				C108.9,40.9,108.9,40.8,109,40.7"/>
			<path id="Fill-13" class="st0" d="M127.6,48.1c1,0,1.8-0.1,2.6-0.5c1.5-0.8,2.4-3.1,1.8-4.6c-0.2-0.7-0.7-1.1-1.4-1.2
				c-0.5,0-1.1,0-1.7,0C128.4,43.9,128,45.9,127.6,48.1 M125.9,56h-3.5c0.4-2.2,0.9-4.3,1.3-6.5c0.6-2.8,1.2-5.7,1.7-8.5
				c0.1-0.3,0.2-0.4,0.6-0.4c2,0,3.9,0,5.9,0c0.6,0,1.1,0.1,1.7,0.2c1.8,0.5,2.6,1.7,2.1,3.6c-0.6,2.6-2.2,4.1-5.1,4.6
				c-1,0.2-2,0.2-2.9,0.2c-0.3,0-0.4,0.1-0.5,0.4c-0.2,1.1-0.4,2.1-0.7,3.2C126.4,53.9,126.2,54.9,125.9,56"/>
			<path id="Fill-15" class="st0" d="M149,50.1h4.3c-0.3-1.7-0.7-3.4-1-5.1c0,0-0.1,0-0.1,0C151.1,46.6,150.1,48.3,149,50.1 M158,56
				h-3.8c-0.2-1.5-0.4-3-0.7-4.6h-1.8c-1,0-2.1,0-3.1,0c-0.4,0-0.5,0.1-0.7,0.4c-0.7,1.3-1.4,2.5-2.1,3.8c-0.2,0.3-0.3,0.4-0.7,0.4
				c-0.5,0-1,0-1.6,0c0.3-0.5,0.6-0.9,0.8-1.4c2.8-4.5,5.6-9.1,8.4-13.6c0.2-0.3,0.4-0.4,0.8-0.4c0.4,0,0.8,0,1.2,0
				C155.9,45.8,157,50.9,158,56"/>
			<path id="Fill-17" class="st0" d="M134,55.1c0.4-0.9,0.7-1.7,1.1-2.5c0-0.1,0.2-0.1,0.3-0.2c0.1,0,0.2,0.1,0.2,0.2
				c0.2,1.7,1.7,2.3,3.1,2.1c1.7-0.2,2.8-1.3,2.8-2.9c0-0.6-0.3-1-0.7-1.3c-0.5-0.4-1.1-0.7-1.7-1c-0.4-0.2-0.8-0.4-1.2-0.6
				c-1.5-1-2.1-2.1-1.7-3.9c0.6-2.5,2.7-4.3,5.5-4.5c1.2-0.1,2.4,0.1,3.5,0.6c0.6,0.3,0.6,0.3,0.3,0.9c-0.2,0.4-0.5,0.9-0.7,1.3
				c-0.1,0.1-0.2,0.2-0.3,0.3c-0.1-0.1-0.2-0.2-0.2-0.3c-0.5-1.3-1.3-1.7-3-1.5c-1.3,0.2-2.2,1.2-2.2,2.4c0,0.7,0.4,1.2,0.9,1.5
				c0.5,0.3,1,0.6,1.5,0.9c0.5,0.3,0.9,0.5,1.4,0.8c1.6,1,2.1,2.4,1.6,4.2c-0.5,1.6-1.6,2.8-3.2,3.6c-2.2,1-4.5,1.2-6.8,0.1
				C134.2,55.2,134.1,55.2,134,55.1"/>
			<g id="Group-50">
				<g id="Group-10">
					<g id="Clip-9">
					</g>
					<defs>
						<filter id="Adobe_OpacityMaskFilter" filterUnits="userSpaceOnUse" x="1.4" y="2.4" width="30.6" height="30.4">
							<feColorMatrix  type="matrix" values="1 0 0 0 0  0 1 0 0 0  0 0 1 0 0  0 0 0 1 0"/>
						</filter>
					</defs>
					<mask maskUnits="userSpaceOnUse" x="1.4" y="2.4" width="30.6" height="30.4" id="mask-2_1_">
						<g class="st1">
							<polygon id="path-1_1_" class="st2" points="32,2.4 1.4,2.4 1.4,32.8 32,32.8 							"/>
						</g>
					</mask>
					<path id="Fill-8" class="st3" d="M26.8,24.3l-0.4,0.6c-1,1.3-2.2,2.3-3.6,3c-1.4,0.7-3,1-4.7,1c-1.8,0-3.6-0.4-5.2-1.3
						c-1.6-0.9-2.8-2.1-3.7-3.6C8.4,22.5,8,20.8,8,19c0-2.9,0.9-5.2,2.9-7.1c1.9-1.9,4.4-2.8,7.4-2.8c3.3,0,6,1.3,8.2,3.8l0.1,0.1
						l1.1-1l-0.1-0.1c-2.5-2.9-5.6-4.3-9.3-4.3c-3.4,0-6.2,1.1-8.4,3.2C7.6,13,6.5,15.7,6.5,19C6.5,21.1,7,23,8,24.7
						c1,1.7,2.4,3.1,4.2,4.1c1.8,1,3.8,1.5,5.9,1.5c1.9,0,3.7-0.4,5.3-1.2c1.4-0.7,2.7-1.6,3.7-2.9l0.8,0.6
						c-1.1,1.3-2.4,2.3-3.9,3.1c-1.8,0.9-3.8,1.3-6,1.3c-3.6,0-6.7-1.2-9.1-3.5c-2.4-2.3-3.6-5.2-3.6-8.7c0-3.3,1-6.1,3-8.4
						c2.4-2.7,5.6-4.1,9.7-4.1c2.2,0,4.2,0.4,5.9,1.2c1.8,0.8,3.3,2,4.4,3.5l0.1,0.1l0,0l0.3,0.4L32,9.2l-0.5-0.6
						c-3.6-4.1-8-6.2-13.3-6.2c-4.8,0-8.9,1.6-12,4.7c-3.2,3.1-4.8,7-4.8,11.6l0,0.2h1.5l0-0.2c0-4.2,1.5-7.8,4.3-10.6
						c2.9-2.8,6.6-4.2,11-4.2c4.6,0,8.5,1.7,11.7,5.2l-1,0.8c-1.2-1.3-2.7-2.4-4.4-3.2c-1.9-0.9-4.1-1.4-6.5-1.4
						c-4.6,0-8.2,1.5-10.9,4.6c-2.2,2.6-3.3,5.7-3.3,9.3c0,3.8,1.4,7.1,4.1,9.7c2.7,2.6,6.1,3.9,10.1,3.9c2.4,0,4.7-0.5,6.6-1.5
						c2-1,3.6-2.3,4.9-4.1l0.4-0.6l-2.7-2.1L26.8,24.3z"/>
				</g>
				<path id="Stroke-20" class="st4" d="M157,37L1.2,37"/>
				<path id="Fill-22" class="st5" d="M4.2,41.3H5v4c-0.1,0.4-0.3,0.8-0.6,1.1C4,46.9,3.6,47,3,47c-0.6,0-1-0.2-1.4-0.6
					c-0.4-0.4-0.6-0.8-0.6-1.3v-3.8h0.7v3.8c0,0.4,0.1,0.7,0.4,0.9c0.2,0.2,0.5,0.4,0.9,0.4c0.3,0,0.6-0.1,0.9-0.4
					c0.2-0.2,0.4-0.6,0.4-0.9V41.3z"/>
				<path id="Fill-24" class="st5" d="M6.5,44.3V47H5.8v-3.6h0.7c0.1-0.1,0.4-0.2,0.7-0.2c0.5,0,0.8,0.1,1.1,0.4
					c0.3,0.3,0.4,0.6,0.4,1V47H8.1v-2.3c0-0.2-0.1-0.4-0.2-0.6c-0.2-0.2-0.4-0.2-0.6-0.2c-0.2,0-0.4,0.1-0.6,0.2
					C6.6,44.1,6.5,44.2,6.5,44.3"/>
				<path id="Fill-26" class="st5" d="M9.6,47h0.7v-3.6H9.6V47z M10.3,42.4c0.1,0.1,0.1,0.2,0.1,0.3c0,0.1,0,0.2-0.1,0.3
					c-0.1,0.1-0.2,0.1-0.4,0.1c-0.2,0-0.3,0-0.4-0.1c-0.1-0.1-0.1-0.2-0.1-0.3c0-0.1,0-0.2,0.1-0.3c0.1-0.1,0.2-0.1,0.4-0.1
					C10.1,42.2,10.2,42.3,10.3,42.4L10.3,42.4z"/>
				<path id="Fill-28" class="st5" d="M14.4,45.4v-0.6c-0.1-0.3-0.2-0.5-0.4-0.7c-0.3-0.3-0.6-0.4-0.9-0.4c-0.4,0-0.7,0.1-0.9,0.4
					c-0.3,0.3-0.4,0.6-0.4,1c0,0.4,0.1,0.7,0.4,1c0.3,0.3,0.6,0.4,0.9,0.4c0.4,0,0.7-0.1,0.9-0.4C14.2,45.9,14.4,45.6,14.4,45.4
					L14.4,45.4z M15.1,47h-0.7v-0.6c-0.3,0.5-0.7,0.7-1.3,0.7c-0.6,0-1.1-0.2-1.4-0.6c-0.4-0.4-0.6-0.9-0.6-1.4c0-0.5,0.2-1,0.6-1.4
					c0.4-0.4,0.9-0.6,1.4-0.6c0.6,0,1,0.2,1.3,0.7v-2.5h0.7V47z"/>
				<path id="Fill-29" class="st5" d="M19.1,45.4v-0.6c-0.1-0.3-0.2-0.5-0.4-0.7c-0.3-0.3-0.6-0.4-0.9-0.4c-0.4,0-0.7,0.1-0.9,0.4
					c-0.3,0.3-0.4,0.6-0.4,1c0,0.4,0.1,0.7,0.4,1c0.3,0.3,0.6,0.4,0.9,0.4c0.4,0,0.7-0.1,0.9-0.4C18.9,45.9,19,45.6,19.1,45.4
					L19.1,45.4z M19.8,47h-0.7v-0.6c-0.3,0.5-0.7,0.7-1.3,0.7c-0.6,0-1.1-0.2-1.4-0.6c-0.4-0.4-0.6-0.9-0.6-1.4c0-0.5,0.2-1,0.6-1.4
					c0.4-0.4,0.9-0.6,1.4-0.6c0.6,0,1,0.2,1.3,0.7v-0.4h0.7V47z"/>
				<path id="Fill-30" class="st5" d="M23.8,45.4v-0.6c-0.1-0.3-0.2-0.5-0.4-0.7c-0.3-0.3-0.6-0.4-0.9-0.4c-0.4,0-0.7,0.1-0.9,0.4
					c-0.3,0.3-0.4,0.6-0.4,1c0,0.4,0.1,0.7,0.4,1c0.3,0.3,0.6,0.4,0.9,0.4c0.4,0,0.7-0.1,0.9-0.4C23.6,45.9,23.7,45.6,23.8,45.4
					L23.8,45.4z M24.5,47h-0.7v-0.6c-0.3,0.5-0.7,0.7-1.3,0.7c-0.6,0-1.1-0.2-1.4-0.6c-0.4-0.4-0.6-0.9-0.6-1.4c0-0.5,0.2-1,0.6-1.4
					c0.4-0.4,0.9-0.6,1.4-0.6c0.6,0,1,0.2,1.3,0.7v-2.5h0.7V47z"/>
				<path id="Fill-31" class="st5" d="M30.4,45.4v-0.6c-0.1-0.3-0.2-0.5-0.4-0.7c-0.3-0.3-0.6-0.4-0.9-0.4c-0.4,0-0.7,0.1-0.9,0.4
					c-0.3,0.3-0.4,0.6-0.4,1c0,0.4,0.1,0.7,0.4,1c0.3,0.3,0.6,0.4,0.9,0.4c0.4,0,0.7-0.1,0.9-0.4C30.3,45.9,30.4,45.6,30.4,45.4
					L30.4,45.4z M31.1,47h-0.7v-0.6c-0.3,0.5-0.7,0.7-1.3,0.7c-0.6,0-1.1-0.2-1.4-0.6c-0.4-0.4-0.6-0.9-0.6-1.4c0-0.5,0.2-1,0.6-1.4
					c0.4-0.4,0.9-0.6,1.4-0.6c0.6,0,1,0.2,1.3,0.7v-2.5h0.7V47z"/>
				<path id="Fill-32" class="st5" d="M32.6,44.5h2.4c-0.2-0.5-0.6-0.7-1.2-0.7C33.1,43.7,32.7,44,32.6,44.5L32.6,44.5z M32.4,45.1
					L32.4,45.1c0,0.4,0.1,0.7,0.4,1c0.3,0.3,0.6,0.4,0.9,0.4c0.4,0,0.7-0.1,0.9-0.4c0,0,0.1-0.1,0.2-0.2l0.7,0.2
					c-0.1,0.2-0.2,0.3-0.3,0.4c-0.4,0.4-0.9,0.6-1.5,0.6c-0.6,0-1.1-0.2-1.4-0.6c-0.4-0.4-0.6-0.9-0.6-1.4c0-0.5,0.2-1,0.6-1.4
					c0.4-0.4,0.9-0.6,1.4-0.6c0.6,0,1.1,0.2,1.5,0.6c0.3,0.3,0.5,0.8,0.5,1.4H32.4z"/>
				<polygon id="Fill-33" class="st5" points="41.4,41.3 41.4,42 39,42 39,43.9 41.4,43.9 41.4,44.5 39,44.5 39,46.4 41.4,46.4 
					41.4,47 38.3,47 38.3,41.3 				"/>
				<path id="Fill-34" class="st5" d="M45.4,45.4v-0.6c-0.1-0.3-0.2-0.5-0.4-0.7c-0.3-0.3-0.6-0.4-0.9-0.4c-0.4,0-0.7,0.1-0.9,0.4
					c-0.3,0.3-0.4,0.6-0.4,1c0,0.4,0.1,0.7,0.4,1c0.3,0.3,0.6,0.4,0.9,0.4c0.4,0,0.7-0.1,0.9-0.4C45.3,45.9,45.4,45.6,45.4,45.4
					L45.4,45.4z M46.1,47h-0.7v-0.6c-0.3,0.5-0.7,0.7-1.3,0.7c-0.6,0-1.1-0.2-1.4-0.6c-0.4-0.4-0.6-0.9-0.6-1.4c0-0.5,0.2-1,0.6-1.4
					c0.4-0.4,0.9-0.6,1.4-0.6c0.6,0,1,0.2,1.3,0.7v-2.5h0.7V47z"/>
				<path id="Fill-35" class="st5" d="M48.4,47c-0.5,0-0.9-0.1-1.1-0.4c-0.3-0.3-0.4-0.6-0.4-1v-2.2h0.7v2.2c0,0.2,0.1,0.4,0.3,0.6
					c0.2,0.2,0.4,0.2,0.6,0.2c0.2,0,0.4-0.1,0.6-0.2c0.2-0.2,0.2-0.4,0.2-0.6v-2.2h0.7v2.2c0,0.4-0.2,0.7-0.4,1
					C49.2,46.9,48.8,47,48.4,47"/>
				<path id="Fill-36" class="st5" d="M53.6,45.9l0.7,0.2c-0.1,0.2-0.2,0.3-0.3,0.4c-0.4,0.4-0.9,0.6-1.5,0.6
					c-0.6,0-1.1-0.2-1.4-0.6c-0.4-0.4-0.6-0.9-0.6-1.4c0-0.5,0.2-1,0.6-1.4c0.4-0.4,0.9-0.6,1.4-0.6c0.6,0,1.1,0.2,1.4,0.6
					c0.1,0.1,0.2,0.2,0.3,0.4l-0.7,0.3c-0.1-0.1-0.2-0.2-0.2-0.2c-0.3-0.3-0.6-0.4-0.9-0.4c-0.4,0-0.7,0.1-0.9,0.4
					c-0.3,0.3-0.4,0.6-0.4,1c0,0.4,0.1,0.7,0.4,1c0.3,0.3,0.6,0.4,0.9,0.4c0.4,0,0.7-0.1,0.9-0.4C53.4,46,53.5,46,53.6,45.9"/>
				<path id="Fill-37" class="st5" d="M58.1,45.4v-0.6c-0.1-0.3-0.2-0.5-0.4-0.7c-0.3-0.3-0.6-0.4-0.9-0.4c-0.4,0-0.7,0.1-0.9,0.4
					c-0.3,0.3-0.4,0.6-0.4,1c0,0.4,0.1,0.7,0.4,1c0.3,0.3,0.6,0.4,0.9,0.4c0.4,0,0.7-0.1,0.9-0.4C57.9,45.9,58,45.6,58.1,45.4
					L58.1,45.4z M58.8,47h-0.7v-0.6c-0.3,0.5-0.7,0.7-1.3,0.7c-0.6,0-1.1-0.2-1.4-0.6c-0.4-0.4-0.6-0.9-0.6-1.4c0-0.5,0.2-1,0.6-1.4
					c0.4-0.4,0.9-0.6,1.4-0.6c0.6,0,1,0.2,1.3,0.7v-0.4h0.7V47z"/>
				<path id="Fill-38" class="st5" d="M62.5,45.9l0.7,0.2c-0.1,0.2-0.2,0.3-0.3,0.4c-0.4,0.4-0.9,0.6-1.5,0.6
					c-0.6,0-1.1-0.2-1.4-0.6c-0.4-0.4-0.6-0.9-0.6-1.4c0-0.5,0.2-1,0.6-1.4c0.4-0.4,0.9-0.6,1.4-0.6c0.6,0,1.1,0.2,1.4,0.6
					c0.1,0.1,0.2,0.2,0.3,0.4l-0.7,0.3c-0.1-0.1-0.2-0.2-0.2-0.2c-0.3-0.3-0.6-0.4-0.9-0.4c-0.4,0-0.7,0.1-0.9,0.4
					c-0.3,0.3-0.4,0.6-0.4,1c0,0.4,0.1,0.7,0.4,1c0.3,0.3,0.6,0.4,0.9,0.4c0.4,0,0.7-0.1,0.9-0.4C62.4,46,62.4,46,62.5,45.9"/>
				<path id="Fill-39" class="st5" d="M63.8,47h0.7v-3.6h-0.7V47z M64.6,42.4c0.1,0.1,0.1,0.2,0.1,0.3c0,0.1,0,0.2-0.1,0.3
					c-0.1,0.1-0.2,0.1-0.4,0.1c-0.2,0-0.3,0-0.4-0.1c-0.1-0.1-0.1-0.2-0.1-0.3c0-0.1,0-0.2,0.1-0.3c0.1-0.1,0.2-0.1,0.4-0.1
					C64.3,42.2,64.5,42.3,64.6,42.4L64.6,42.4z"/>
				<path id="Fill-40" class="st5" d="M68.7,42l-1.2,0.9h-0.7l0.8-0.9H68.7z M66.4,44.1c-0.3,0.3-0.4,0.6-0.4,1c0,0.4,0.1,0.7,0.4,1
					c0.3,0.3,0.6,0.4,0.9,0.4c0.4,0,0.7-0.1,0.9-0.4c0.3-0.3,0.4-0.6,0.4-1c0-0.4-0.1-0.7-0.4-1c-0.3-0.3-0.6-0.4-0.9-0.4
					C67,43.7,66.7,43.9,66.4,44.1L66.4,44.1z M67.3,43.1c0.6,0,1.1,0.2,1.4,0.6c0.4,0.4,0.6,0.9,0.6,1.4c0,0.5-0.2,1-0.6,1.4
					c-0.4,0.4-0.9,0.6-1.4,0.6c-0.6,0-1.1-0.2-1.4-0.6c-0.4-0.4-0.6-0.9-0.6-1.4c0-0.5,0.2-1,0.6-1.4C66.3,43.3,66.8,43.1,67.3,43.1
					L67.3,43.1z"/>
				<path id="Fill-41" class="st5" d="M70.8,44.3V47H70v-3.6h0.7c0.1-0.1,0.4-0.2,0.7-0.2c0.5,0,0.8,0.1,1.1,0.4
					c0.3,0.3,0.4,0.6,0.4,1V47h-0.7v-2.3c0-0.2-0.1-0.4-0.2-0.6c-0.2-0.2-0.4-0.2-0.6-0.2c-0.2,0-0.4,0.1-0.6,0.2
					C70.9,44.1,70.8,44.2,70.8,44.3"/>
				<path id="Fill-42" class="st5" d="M80.3,45.8l0.5,0.4c-0.6,0.6-1.3,0.9-2.1,0.9c-0.8,0-1.5-0.3-2.1-0.9c-0.6-0.6-0.9-1.2-0.9-2
					c0-0.8,0.3-1.5,0.9-2c0.6-0.6,1.3-0.9,2.1-0.9c0.8,0,1.5,0.3,2.1,0.9l-0.5,0.4c-0.5-0.5-1.1-0.7-1.6-0.7c-0.6,0-1.1,0.2-1.6,0.7
					c-0.4,0.4-0.7,1-0.7,1.6c0,0.6,0.2,1.2,0.7,1.6c0.4,0.4,1,0.7,1.6,0.7C79.2,46.4,79.7,46.2,80.3,45.8"/>
				<path id="Fill-43" class="st5" d="M82.4,44.1c-0.3,0.3-0.4,0.6-0.4,1c0,0.4,0.1,0.7,0.4,1c0.3,0.3,0.6,0.4,0.9,0.4
					c0.4,0,0.7-0.1,0.9-0.4c0.3-0.3,0.4-0.6,0.4-1c0-0.4-0.1-0.7-0.4-1c-0.3-0.3-0.6-0.4-0.9-0.4C83,43.7,82.7,43.9,82.4,44.1
					 M83.3,43.1c0.6,0,1.1,0.2,1.4,0.6c0.4,0.4,0.6,0.9,0.6,1.4c0,0.5-0.2,1-0.6,1.4c-0.4,0.4-0.9,0.6-1.4,0.6
					c-0.6,0-1.1-0.2-1.4-0.6c-0.4-0.4-0.6-0.9-0.6-1.4c0-0.5,0.2-1,0.6-1.4C82.3,43.3,82.8,43.1,83.3,43.1"/>
				<path id="Fill-44" class="st5" d="M86.7,44.3V47H86v-3.6h0.7c0.1-0.1,0.4-0.2,0.7-0.2c0.5,0,0.8,0.1,1.1,0.4
					c0.3,0.3,0.4,0.6,0.4,1V47h-0.7v-2.3c0-0.2-0.1-0.4-0.2-0.6c-0.2-0.2-0.4-0.2-0.6-0.2c-0.2,0-0.4,0.1-0.6,0.2
					C86.8,44.1,86.8,44.2,86.7,44.3"/>
				<polygon id="Fill-45" class="st5" points="90.2,43.4 90.2,42 90.9,42 90.9,43.4 91.6,43.4 91.6,44 90.9,44 90.9,47 90.2,47 
					90.2,44 89.5,44 89.5,43.4 				"/>
				<path id="Fill-46" class="st5" d="M92.2,47h0.7v-3.6h-0.7V47z M92.9,42.4c0.1,0.1,0.1,0.2,0.1,0.3c0,0.1,0,0.2-0.1,0.3
					c-0.1,0.1-0.2,0.1-0.4,0.1c-0.1,0-0.3,0-0.4-0.1c-0.1-0.1-0.1-0.2-0.1-0.3c0-0.1,0-0.2,0.1-0.3c0.1-0.1,0.2-0.1,0.4-0.1
					C92.7,42.2,92.8,42.3,92.9,42.4L92.9,42.4z"/>
				<path id="Fill-47" class="st5" d="M94.4,44.3V47h-0.7v-3.6h0.7c0.1-0.1,0.4-0.2,0.7-0.2c0.5,0,0.8,0.1,1.1,0.4
					c0.3,0.3,0.4,0.6,0.4,1V47H96v-2.3c0-0.2-0.1-0.4-0.2-0.6c-0.2-0.2-0.4-0.2-0.6-0.2c-0.2,0-0.4,0.1-0.6,0.2
					C94.5,44.1,94.5,44.2,94.4,44.3"/>
				<path id="Fill-48" class="st5" d="M99,47c-0.5,0-0.9-0.1-1.1-0.4c-0.3-0.3-0.4-0.6-0.4-1v-2.2h0.7v2.2c0,0.2,0.1,0.4,0.3,0.6
					c0.2,0.2,0.4,0.2,0.6,0.2c0.2,0,0.4-0.1,0.6-0.2c0.2-0.2,0.2-0.4,0.2-0.6v-2.2h0.7v2.2c0,0.4-0.2,0.7-0.4,1
					C99.8,46.9,99.5,47,99,47"/>
				<path id="Fill-49" class="st5" d="M104.5,45.4v-0.6c-0.1-0.3-0.2-0.5-0.4-0.7c-0.3-0.3-0.6-0.4-0.9-0.4c-0.4,0-0.7,0.1-0.9,0.4
					c-0.3,0.3-0.4,0.6-0.4,1c0,0.4,0.1,0.7,0.4,1c0.3,0.3,0.6,0.4,0.9,0.4c0.4,0,0.7-0.1,0.9-0.4C104.3,45.9,104.4,45.6,104.5,45.4
					L104.5,45.4z M105.2,47h-0.7v-0.6c-0.3,0.5-0.7,0.7-1.3,0.7c-0.6,0-1.1-0.2-1.4-0.6c-0.4-0.4-0.6-0.9-0.6-1.4
					c0-0.5,0.2-1,0.6-1.4c0.4-0.4,0.9-0.6,1.4-0.6c0.6,0,1,0.2,1.3,0.7v-0.4h0.7V47z"/>
			</g>
		</g>
	</g>
</g>
</svg>
